# xmcd CD database file
#
# Track frame offsets:
#	150
#	15705
#	26497
#	43642
#	64285
#	83792
#	99640
#	115897
#	137105
#	151367
#	170722
#	187652
#	200235
#	212012
#	223870
#	238215
#	252037
#	270625
#	283457
#	294620
#
# Disc length: 4068 seconds
#
# Revision: 3
# Processed by: cddbd v1.5.1PL2 Copyright (c) Steve Scherf et al.
# Submitted via: CDex 1.51
#
DISCID=380fe214
DTITLE=KKris Kristofferson, Johnny Cash - Kris Kristofferson And Johnny Cash - Back To Back
DYEAR=1991
DGENRE=Country
TTITLE0=Kris Kristofferson - For The Good Times
TTITLE1=Kris Kristofferson - Help Me Make It Through The Night
TTITLE2=Kris Kristofferson - Loving Her Was Easier (Than Anything I'll Ever Do Again)
TTITLE3=Kris Kristofferson - Sunday Mornin' Comin' Down
TTITLE4=Kris Kristofferson - The Silver - Tongued Devil
TTITLE5=Kris Kristofferson - Why Me
TTITLE6=Kris Kristofferson - Casey's Last Ride
TTITLE7=Kris Kristofferson - To Beat The Devil
TTITLE8=Kris Kristofferson - Stranger
TTITLE9=Kris Kristofferson - Me And Bobby Mcgee
TTITLE10=Johnny Cash - A Boy Named Sue
TTITLE11=Johnny Cash - Folsom Prison Blues
TTITLE12=Johnny Cash - I Walk The Line
TTITLE13=Johnny Cash - Ring Of Fire
TTITLE14=Johnny Cash - Orange Blossom Special
TTITLE15=Johnny Cash - Don't Take Your Guns To Town
TTITLE16=Johnny Cash - Wanted Man
TTITLE17=Johnny Cash - The One On The Right Is On The Left
TTITLE18=Johnny Cash - Amazing Grace
TTITLE19=Johnny Cash - Big River
EXTD=YEAR: 1991
EXTT0=
EXTT1=
EXTT2=
EXTT3=
EXTT4=
EXTT5=
EXTT6=
EXTT7=
EXTT8=
EXTT9=
EXTT10=
EXTT11=
EXTT12=
EXTT13=
EXTT14=
EXTT15=
EXTT16=
EXTT17=
EXTT18=
EXTT19=
PLAYORDER=
